<svg xmlns="http://www.w3.org/2000/svg" width="100" height="100" viewBox="0 0 100 100"><defs><style>.a{fill:#fff;}</style></defs><g transform="translate(-206 -206)"><path class="a" d="M300.241,279.556a50.252,50.252,0,0,0-3.494-5.669l-5.091,3.629a43.29,43.29,0,0,1,3.057,4.956Z"/><path class="a" d="M283.706,269.019a43.874,43.874,0,0,1,4.26,3.987l4.559-4.275a50.676,50.676,0,0,0-4.856-4.547Z"/><path class="a" d="M268.141,254.394a48.993,48.993,0,0,0-23.172-.253L236.291,231H206v6.25h25.959l7,18.678A50.038,50.038,0,0,0,206,302.875V306h28.125v-3.125a21.875,21.875,0,0,1,43.75,0V306H306v-3.125a49.77,49.77,0,0,0-3.053-17.234l-5.866,2.153a43.339,43.339,0,0,1,2.56,11.956H283.95a28.162,28.162,0,0,0-24.825-24.809v-15.7a43.655,43.655,0,0,1,19.844,6.391l3.281-5.312a49.435,49.435,0,0,0-7.812-3.894l5-6.672H306V243.5H276.313ZM228.05,299.75H212.36a43.556,43.556,0,0,1,10.606-25.494l11.081,11.085A27.944,27.944,0,0,0,228.05,299.75Zm24.825-24.809a27.955,27.955,0,0,0-14.4,5.987L227.4,269.853a43.539,43.539,0,0,1,25.475-10.578Z"/><rect class="a" width="37.5" height="6.25" transform="translate(206 206)"/><rect class="a" width="18.75" height="6.25" transform="translate(206 218.5)"/><rect class="a" width="6.25" height="6.25" transform="translate(231 218.5)"/><rect class="a" width="31.25" height="6.25" transform="translate(274.75 218.5)"/><rect class="a" width="12.5" height="6.25" transform="translate(274.75 231)"/><rect class="a" width="6.25" height="6.25" transform="translate(293.5 231)"/></g></svg>