<svg xmlns="http://www.w3.org/2000/svg" width="100" height="86.941" viewBox="0 0 100 86.941"><defs><style>.a{fill:#fff;}</style></defs><g transform="translate(-206 -211.098)"><path class="a" d="M287.25,211.1v6.25h12.5v50H261.341L231,286.657V267.348H212.25v-50H256V211.1H206v62.5h18.75v24.441L263.159,273.6H306V211.1Z"/><path class="a" d="M240.375,251.723v-18.75h-18.75v18.75Zm-12.5-12.5h6.25v6.25h-6.25Z"/><path class="a" d="M246.625,251.723h18.75v-18.75h-18.75Zm6.25-12.5h6.25v6.25h-6.25Z"/><path class="a" d="M290.375,232.973h-18.75v18.75h18.75Zm-6.25,12.5h-6.25v-6.25h6.25Z"/><rect class="a" width="6.25" height="6.25" transform="translate(262.25 211.098)"/><rect class="a" width="6.25" height="6.25" transform="translate(274.75 211.098)"/></g></svg>