<svg xmlns="http://www.w3.org/2000/svg" width="100" height="100" viewBox="0 0 100 100"><defs><style>.a{fill:#fff;}</style></defs><g transform="translate(-691 -1234.75)"><path class="a" d="M731.625,1302.669l-8.681-15.191a10.172,10.172,0,0,0-17.619,10.172l7.975,13.663,5.4-3.125-7.975-13.685a3.923,3.923,0,0,1,6.794-3.925l7.856,13.753v17.919h-18.75v-3.991l-9.375-15.625v-52.259a3.125,3.125,0,0,1,6.25,0V1278.5h6.25v-28.125a9.375,9.375,0,0,0-18.75,0v53.991l9.375,15.625v2.259h-6.25v12.5h6.25v-6.25h31.25v6.25h6.25v-12.5h-6.25Z"/><path class="a" d="M784.75,1302.634l-9.375,15.625v3.991h-18.75v-17.919l7.856-13.75a3.923,3.923,0,0,1,6.794,3.925h0l-7.975,13.682,5.4,3.125,7.975-13.675a10.172,10.172,0,1,0-17.619-10.172l-8.681,15.2v19.581h-6.25v12.5h6.25v-6.25h31.25v6.25h6.25v-12.5h-6.25v-2.259L791,1304.366V1291h-6.25Z"/><path class="a" d="M781.625,1241a9.375,9.375,0,0,0-9.375,9.375V1278.5h6.25v-28.125a3.125,3.125,0,0,1,6.25,0v9.375H791v-9.375A9.375,9.375,0,0,0,781.625,1241Z"/><rect class="a" width="6.25" height="6.25" transform="translate(784.75 1266)"/><rect class="a" width="6.25" height="6.25" transform="translate(784.75 1278.5)"/><path class="a" d="M766,1259.75a25,25,0,1,0-25,25A25,25,0,0,0,766,1259.75Zm-6.531-3.125a17.5,17.5,0,0,1,0,6.25H753.4c.05-1.028.1-2.062.1-3.125s-.047-2.1-.1-3.125Zm-2.257-6.25h-4.468a42.406,42.406,0,0,0-1.5-6.309A18.851,18.851,0,0,1,757.212,1250.375Zm-18.221-9.262a17.875,17.875,0,0,1,4.018,0,23.976,23.976,0,0,1,3.4,9.262H735.591A23.976,23.976,0,0,1,738.991,1241.113Zm-16.46,21.762a17.5,17.5,0,0,1,0-6.25H728.6c-.05,1.028-.1,2.062-.1,3.125s.047,2.1.1,3.125Zm2.257,6.25h4.468a42.406,42.406,0,0,0,1.5,6.309A18.851,18.851,0,0,1,724.788,1269.125Zm4.468-18.75h-4.468a18.851,18.851,0,0,1,5.968-6.309,42.406,42.406,0,0,0-1.5,6.309Zm13.75,28.012a17.885,17.885,0,0,1-4.019,0,23.985,23.985,0,0,1-3.4-9.262h10.818a23.976,23.976,0,0,1-3.4,9.262Zm4.144-15.512h-12.3c-.056-1.013-.1-2.041-.1-3.125s.044-2.113.1-3.125h12.3c.056,1.012.1,2.041.1,3.125S747.206,1261.862,747.15,1262.875Zm4.094,12.559a42.406,42.406,0,0,0,1.5-6.309h4.468A18.851,18.851,0,0,1,751.244,1275.434Z"/></g></svg>