<svg xmlns="http://www.w3.org/2000/svg" width="100" height="87.5" viewBox="0 0 100 87.5"><defs><style>.a{fill:#fff;}</style></defs><g transform="translate(-206 -212.25)"><path class="a" d="M286.531,254.591c-1.378,2.587-2.709,5.053-4.143,7.209a12.332,12.332,0,0,0-17.326,1.988q-.167.21-.324.428a57.794,57.794,0,0,1-5.979-9.688,46.582,46.582,0,0,0-9.1-13.25c.022-.312.091-.6.091-.906a12.5,12.5,0,1,0-24.094,4.612,73.2,73.2,0,0,0-5.743,9.522c-4.635,8.71-7.885,13.994-13.913,13.994v6.25c10.216,0,15.109-9.191,19.431-17.3,1.388-2.6,2.728-5.084,4.175-7.256a12.328,12.328,0,0,0,17.323-1.971q.173-.216.334-.439a57.855,57.855,0,0,1,5.978,9.688,46.581,46.581,0,0,0,9.1,13.25c-.022.312-.091.6-.091.906a12.5,12.5,0,1,0,24.094-4.615,73.928,73.928,0,0,0,5.7-9.485c4.641-8.716,7.9-14.028,13.953-14.028v-6.25C295.75,237.25,290.85,246.462,286.531,254.591Zm-49.281-7.966a6.25,6.25,0,1,1,6.25-6.25A6.25,6.25,0,0,1,237.25,246.625Zm37.5,31.25a6.25,6.25,0,1,1,6.25-6.25A6.25,6.25,0,0,1,274.75,277.875Z"/><rect class="a" width="31.25" height="6.25" transform="translate(256 212.25)"/><rect class="a" width="6.25" height="6.25" transform="translate(274.75 224.75)"/><rect class="a" width="12.5" height="6.25" transform="translate(256 224.75)"/><rect class="a" width="31.25" height="6.25" transform="translate(224.75 281)"/><rect class="a" width="6.25" height="6.25" transform="translate(243.5 293.5)"/><rect class="a" width="12.5" height="6.25" transform="translate(224.75 293.5)"/></g></svg>