<svg xmlns="http://www.w3.org/2000/svg" width="100" height="75" viewBox="0 0 100 75"><defs><style>.a{fill:#fff;}</style></defs><g transform="translate(-206 -218.5)"><path class="a" d="M206,218.5v18.75h10.828l7.922,11.875,7.922-11.875h15.406L256,249.125l7.922-11.875h15.406l7.922,11.875,7.922-11.875H306V218.5ZM237.25,231h-7.922l-4.578,6.875L220.172,231H212.25v-6.25h25Zm31.25,0h-7.922L256,237.875,251.422,231H243.5v-6.25h25Zm31.25,0h-7.922l-4.578,6.875L282.672,231H274.75v-6.25h25Z"/><path class="a" d="M224.75,256a12.5,12.5,0,1,0,12.5,12.5A12.5,12.5,0,0,0,224.75,256Zm0,18.75A6.25,6.25,0,1,1,231,268.5,6.25,6.25,0,0,1,224.75,274.75Z"/><path class="a" d="M256,256a12.5,12.5,0,1,0,12.5,12.5A12.5,12.5,0,0,0,256,256Zm0,18.75a6.25,6.25,0,1,1,6.25-6.25A6.25,6.25,0,0,1,256,274.75Z"/><path class="a" d="M287.25,256a12.5,12.5,0,1,0,12.5,12.5A12.5,12.5,0,0,0,287.25,256Zm0,18.75a6.25,6.25,0,1,1,6.25-6.25A6.25,6.25,0,0,1,287.25,274.75Z"/><rect class="a" width="6.25" height="6.25" transform="translate(215.375 287.25)"/><rect class="a" width="6.25" height="6.25" transform="translate(227.875 287.25)"/><rect class="a" width="6.25" height="6.25" transform="translate(246.625 287.25)"/><rect class="a" width="6.25" height="6.25" transform="translate(259.125 287.25)"/><rect class="a" width="6.25" height="6.25" transform="translate(290.375 287.25)"/><rect class="a" width="6.25" height="6.25" transform="translate(277.875 287.25)"/></g></svg>