<svg xmlns="http://www.w3.org/2000/svg" width="100" height="100" viewBox="0 0 100 100"><defs><style>.a{fill:#fff;}</style></defs><g transform="translate(-377.5 -1234.75)"><path class="a" d="M470.528,1289.875l1.659-2-1.662-2c-.778-.934-19.394-23-43.025-23s-42.247,22.066-43.028,23l-1.659,2,1.662,2c.778.934,19.394,23,43.025,23S469.747,1290.809,470.528,1289.875Zm-43.028,16.75c-16.787,0-31.4-13.547-36.394-18.75,5-5.2,19.607-18.75,36.394-18.75s31.4,13.547,36.394,18.75C458.9,1293.078,444.287,1306.625,427.5,1306.625Z"/><path class="a" d="M427.5,1275.375a12.5,12.5,0,1,0,12.5,12.5A12.5,12.5,0,0,0,427.5,1275.375Zm0,18.75a6.25,6.25,0,1,1,6.25-6.25A6.25,6.25,0,0,1,427.5,1294.125Z"/><path class="a" d="M397.166,1265.084l4.419-4.419-7.166-7.166H377.5v6.25h14.331Z"/><rect class="a" width="12.5" height="6.25" transform="translate(377.5 1241)"/><rect class="a" width="18.75" height="6.25" transform="translate(377.5 1328.5)"/><rect class="a" width="31.25" height="6.25" transform="translate(446.25 1234.75)"/><rect class="a" width="18.75" height="6.25" transform="translate(446.25 1247.25)"/><rect class="a" width="6.25" height="6.25" transform="translate(471.25 1247.25)"/><rect class="a" width="18.75" height="6.25" transform="translate(458.75 1259.75)"/><rect class="a" width="6.25" height="6.25" transform="translate(440 1322.25)"/><rect class="a" width="25" height="6.25" transform="translate(452.5 1322.25)"/><path class="a" d="M394.956,1316H377.5v6.25h20.044l7.166-7.166-4.419-4.419Z"/><rect class="a" width="6.25" height="6.25" transform="translate(396.25 1241)"/><rect class="a" width="6.25" height="6.25" transform="translate(408.75 1241)"/></g></svg>