<svg xmlns="http://www.w3.org/2000/svg" width="100" height="100" viewBox="0 0 100 100"><defs><style>.a{fill:#fff;}</style></defs><g transform="translate(-200 -1234.75)"><path class="a" d="M206.25,1259.75H225V1241h43.75v18.75H275v-25H220.581L200,1255.331v79.419h43.75v-6.25h-37.5Zm12.5-14.331v8.081h-8.081Z"/><rect class="a" width="6.25" height="6.25" transform="translate(268.75 1266)"/><rect class="a" width="6.25" height="6.25" transform="translate(268.75 1278.5)"/><path class="a" d="M262.5,1266h-50v18.75h50Zm-6.25,12.5h-37.5v-6.25h37.5Z"/><rect class="a" width="50" height="6.25" transform="translate(212.5 1291)"/><rect class="a" width="40.625" height="6.25" transform="translate(212.5 1303.5)"/><path class="a" d="M297.853,1296.272a9.375,9.375,0,0,0-16-6.631L250,1321.494v13.256h13.259l31.854-31.85A9.339,9.339,0,0,0,297.853,1296.272ZM260.672,1328.5H256.25v-4.419l23.391-23.393,4.421,4.421Zm30.019-30.019-2.21,2.21-4.419-4.419,2.21-2.213a3.127,3.127,0,0,1,4.422,4.422Z"/><rect class="a" width="6.25" height="6.25" transform="translate(293.75 1328.5)"/><rect class="a" width="12.5" height="6.25" transform="translate(275 1328.5)"/></g></svg>