<svg xmlns="http://www.w3.org/2000/svg" width="90.624" height="100" viewBox="0 0 90.624 100"><defs><style>.a{fill:#fff;}</style></defs><g transform="translate(-550.464 -1234.75)"><rect class="a" width="6.25" height="6.25" transform="translate(550.464 1278.5)"/><path class="a" d="M556.714,1259.75h18.75V1241h25v-6.25H571.046l-20.582,20.581v16.919h6.25Zm12.5-14.331v8.081h-8.081Z"/><path class="a" d="M619.214,1328.5h-62.5v-25h-6.25v31.25h75v-37.5h-6.25Z"/><rect class="a" width="6.25" height="6.25" transform="translate(550.464 1291)"/><path class="a" d="M622.339,1234.75a18.725,18.725,0,0,0-12.5,32.688v29.4l12.5-8.341,12.5,8.334v-29.4a18.725,18.725,0,0,0-12.5-32.688Zm6.25,50.409-6.25-4.159-6.25,4.166v-14.01a18.4,18.4,0,0,0,12.5,0ZM622.339,1266a12.5,12.5,0,1,1,12.5-12.5A12.5,12.5,0,0,1,622.339,1266Z"/></g></svg>